<?xml version="1.0" encoding="UTF-8"?>
<svg xmlns="http://www.w3.org/2000/svg" width="900" height="520" viewBox="0 0 900 520">
  <defs>
    <symbol id="icon-shield" viewBox="0 0 24 24">
      <path fill="#1F2937" fill-rule="evenodd" d="M12.516 2.17a.75.75 0 0 0-1.032 0 11.209 11.209 0 0 1-7.877 3.08.75.75 0 0 0-.722.515A12.74 12.74 0 0 0 2.25 9.75c0 5.942 4.064 10.933 9.563 12.348a.749.749 0 0 0 .374 0c5.499-1.415 9.563-6.406 9.563-12.348 0-1.39-.223-2.73-.635-3.985a.75.75 0 0 0-.722-.516l-.143.001c-2.996 0-5.717-1.17-7.734-3.08Zm3.094 8.016a.75.75 0 1 0-1.22-.872l-3.236 4.53L9.53 12.22a.75.75 0 0 0-1.06 1.06l2.25 2.25a.75.75 0 0 0 1.14-.094l3.75-5.25Z" clip-rule="evenodd"/>
    </symbol>
    <symbol id="icon-cpu" viewBox="0 0 24 24">
      <path fill="#1F2937" d="M16.5 7.5h-9v9h9v-9Z"/>
      <path fill="#1F2937" fill-rule="evenodd" d="M8.25 2.25A.75.75 0 0 1 9 3v.75h2.25V3a.75.75 0 0 1 1.5 0v.75H15V3a.75.75 0 0 1 1.5 0v.75h.75a3 3 0 0 1 3 3v.75H21A.75.75 0 0 1 21 9h-.75v2.25H21a.75.75 0 0 1 0 1.5h-.75V15H21a.75.75 0 0 1 0 1.5h-.75v.75a3 3 0 0 1-3 3h-.75V21a.75.75 0 0 1-1.5 0v-.75h-2.25V21a.75.75 0 0 1-1.5 0v-.75H9V21a.75.75 0 0 1-1.5 0v-.75h-.75a3 3 0 0 1-3-3v-.75H3A.75.75 0 0 1 3 15h.75v-2.25H3a.75.75 0 0 1 0-1.5h.75V9H3a.75.75 0 0 1 0-1.5h.75v-.75a3 3 0 0 1 3-3h.75V3a.75.75 0 0 1 .75-.75ZM6 6.75A.75.75 0 0 1 6.75 6h10.5a.75.75 0 0 1 .75.75v10.5a.75.75 0 0 1-.75.75H6.75a.75.75 0 0 1-.75-.75V6.75Z" clip-rule="evenodd"/>
    </symbol>
    <symbol id="icon-db" viewBox="0 0 24 24">
      <path fill="#1F2937" d="M21 6.375c0 2.692-4.03 4.875-9 4.875S3 9.067 3 6.375 7.03 1.5 12 1.5s9 2.183 9 4.875Z"/>
      <path fill="#1F2937" d="M12 12.75c2.685 0 5.19-.586 7.078-1.609a8.283 8.283 0 0 0 1.897-1.384c.016.121.025.244.025.368C21 12.817 16.97 15 12 15s-9-2.183-9-4.875c0-.124.009-.247.025-.368a8.285 8.285 0 0 0 1.897 1.384C6.809 12.164 9.315 12.75 12 12.75Z"/>
      <path fill="#1F2937" d="M12 16.5c2.685 0 5.19-.586 7.078-1.609a8.282 8.282 0 0 0 1.897-1.384c.016.121.025.244.025.368 0 2.692-4.03 4.875-9 4.875s-9-2.183-9-4.875c0-.124.009-.247.025-.368a8.284 8.284 0 0 0 1.897 1.384C6.809 15.914 9.315 16.5 12 16.5Z"/>
      <path fill="#1F2937" d="M12 20.25c2.685 0 5.19-.586 7.078-1.609a8.282 8.282 0 0 0 1.897-1.384c.016.121.025.244.025.368 0 2.692-4.03 4.875-9 4.875s-9-2.183-9-4.875c0-.124.009-.247.025-.368a8.284 8.284 0 0 0 1.897 1.384C6.809 19.664 9.315 20.25 12 20.25Z"/>
    </symbol>
    <symbol id="icon-chart" viewBox="0 0 24 24">
      <path fill="#1F2937" d="M18.375 2.25c-1.035 0-1.875.84-1.875 1.875v15.75c0 1.035.84 1.875 1.875 1.875h.75c1.035 0 1.875-.84 1.875-1.875V4.125c0-1.036-.84-1.875-1.875-1.875h-.75ZM9.75 8.625c0-1.036.84-1.875 1.875-1.875h.75c1.036 0 1.875.84 1.875 1.875v11.25c0 1.035-.84 1.875-1.875 1.875h-.75a1.875 1.875 0 0 1-1.875-1.875V8.625ZM3 13.125c0-1.036.84-1.875 1.875-1.875h.75c1.036 0 1.875.84 1.875 1.875v6.75c0 1.035-.84 1.875-1.875 1.875h-.75A1.875 1.875 0 0 1 3 19.875v-6.75Z"/>
    </symbol>
  </defs>

  <rect x="30" y="30" width="840" height="140" rx="22" fill="#FFFFFF" stroke="#CBD5E1" />
  <rect x="30" y="190" width="840" height="140" rx="22" fill="#FFFFFF" stroke="#CBD5E1" />
  <rect x="30" y="350" width="840" height="140" rx="22" fill="#FFFFFF" stroke="#CBD5E1" />

  <g>
    <use href="#icon-shield" x="60" y="70" width="40" height="40" />
    <text x="120" y="86" font-family="Times New Roman, serif" font-size="16" font-weight="bold" fill="#1F2937">Domain</text>
    <text x="120" y="112" font-family="Times New Roman, serif" font-size="13" fill="#475569">Модель события, результат аномалии, требования к данным</text>
    <text x="120" y="132" font-family="Times New Roman, serif" font-size="13" fill="#475569">Единый контракт для логов и детектора</text>
  </g>

  <g>
    <use href="#icon-cpu" x="60" y="230" width="40" height="40" />
    <text x="120" y="246" font-family="Times New Roman, serif" font-size="16" font-weight="bold" fill="#1F2937">Application</text>
    <text x="120" y="272" font-family="Times New Roman, serif" font-size="13" fill="#475569">Парсеры, извлечение признаков, обучение и инференс</text>
    <text x="120" y="292" font-family="Times New Roman, serif" font-size="13" fill="#475569">Генератор синтетики и сценарии демонстрации</text>
  </g>

  <g>
    <use href="#icon-db" x="60" y="390" width="40" height="40" />
    <text x="120" y="406" font-family="Times New Roman, serif" font-size="16" font-weight="bold" fill="#1F2937">Infrastructure</text>
    <text x="120" y="432" font-family="Times New Roman, serif" font-size="13" fill="#475569">Хранилище, реестр моделей, API, контейнеризация</text>
    <text x="120" y="452" font-family="Times New Roman, serif" font-size="13" fill="#475569">Мониторинг и визуализация (Grafana)</text>
    <use href="#icon-chart" x="700" y="390" width="40" height="40" />
  </g>
</svg>
